<mxfile host="app.diagrams.net" modified="2023-07-25T13:55:53.617Z" agent="Mozilla/5.0 (Windows NT 10.0; Win64; x64) AppleWebKit/537.36 (KHTML, like Gecko) Chrome/114.0.0.0 YaBrowser/23.7.0.2526 Yowser/2.5 Safari/537.36" etag="TCE_F0Oj4vABvxWFxkve" version="21.3.8" type="device">
  <diagram name="Страница 1" id="f-u1GKaP4dZwQ6ztF_VC">
    <mxGraphModel dx="1546" dy="1161" grid="0" gridSize="10" guides="1" tooltips="1" connect="1" arrows="1" fold="1" page="0" pageScale="1" pageWidth="827" pageHeight="1169" math="0" shadow="0">
      <root>
        <mxCell id="0" />
        <mxCell id="1" parent="0" />
        <mxCell id="um8ARfCaRjgJPJan6YDZ-6" style="edgeStyle=none;curved=1;rounded=0;orthogonalLoop=1;jettySize=auto;html=1;entryX=0.5;entryY=0;entryDx=0;entryDy=0;fontSize=12;startSize=8;endSize=8;" parent="1" source="um8ARfCaRjgJPJan6YDZ-1" target="um8ARfCaRjgJPJan6YDZ-2" edge="1">
          <mxGeometry relative="1" as="geometry" />
        </mxCell>
        <mxCell id="um8ARfCaRjgJPJan6YDZ-1" value="begin" style="rounded=1;whiteSpace=wrap;html=1;fontSize=16;" parent="1" vertex="1">
          <mxGeometry x="431" y="-114" width="108" height="53" as="geometry" />
        </mxCell>
        <mxCell id="um8ARfCaRjgJPJan6YDZ-7" style="edgeStyle=none;curved=1;rounded=0;orthogonalLoop=1;jettySize=auto;html=1;entryX=0.5;entryY=0;entryDx=0;entryDy=0;fontSize=12;startSize=8;endSize=8;" parent="1" source="um8ARfCaRjgJPJan6YDZ-2" target="um8ARfCaRjgJPJan6YDZ-5" edge="1">
          <mxGeometry relative="1" as="geometry" />
        </mxCell>
        <mxCell id="um8ARfCaRjgJPJan6YDZ-2" value="arrayInput[string1,string2, string3...]&lt;br&gt;int arrayOutputSize = 0&lt;br&gt;arrayOutput[arrayOutputSize]" style="shape=parallelogram;perimeter=parallelogramPerimeter;whiteSpace=wrap;html=1;fixedSize=1;fontSize=16;" parent="1" vertex="1">
          <mxGeometry x="338.62" y="-10" width="292.75" height="93" as="geometry" />
        </mxCell>
        <mxCell id="um8ARfCaRjgJPJan6YDZ-9" value="Yes" style="edgeStyle=none;curved=1;rounded=0;orthogonalLoop=1;jettySize=auto;html=1;entryX=0.5;entryY=0;entryDx=0;entryDy=0;fontSize=12;startSize=8;endSize=8;" parent="1" source="um8ARfCaRjgJPJan6YDZ-5" target="um8ARfCaRjgJPJan6YDZ-8" edge="1">
          <mxGeometry relative="1" as="geometry" />
        </mxCell>
        <mxCell id="um8ARfCaRjgJPJan6YDZ-18" style="edgeStyle=none;curved=1;rounded=0;orthogonalLoop=1;jettySize=auto;html=1;entryX=0;entryY=0.5;entryDx=0;entryDy=0;fontSize=12;startSize=8;endSize=8;" parent="1" source="um8ARfCaRjgJPJan6YDZ-5" target="um8ARfCaRjgJPJan6YDZ-17" edge="1">
          <mxGeometry relative="1" as="geometry" />
        </mxCell>
        <mxCell id="fWhPgje_Y8fhUjsK5la_-1" value="No" style="edgeLabel;html=1;align=center;verticalAlign=middle;resizable=0;points=[];" vertex="1" connectable="0" parent="um8ARfCaRjgJPJan6YDZ-18">
          <mxGeometry x="0.26" y="1" relative="1" as="geometry">
            <mxPoint as="offset" />
          </mxGeometry>
        </mxCell>
        <mxCell id="um8ARfCaRjgJPJan6YDZ-5" value="for(int i = 0;&lt;br&gt;i &amp;lt; arrayInput.Getlength;&lt;br&gt;i++)" style="rhombus;whiteSpace=wrap;html=1;fontSize=16;" parent="1" vertex="1">
          <mxGeometry x="388" y="119" width="194" height="189" as="geometry" />
        </mxCell>
        <mxCell id="um8ARfCaRjgJPJan6YDZ-12" style="edgeStyle=none;curved=1;rounded=0;orthogonalLoop=1;jettySize=auto;html=1;entryX=1;entryY=0.5;entryDx=0;entryDy=0;fontSize=12;startSize=8;endSize=8;" parent="1" source="um8ARfCaRjgJPJan6YDZ-8" target="um8ARfCaRjgJPJan6YDZ-10" edge="1">
          <mxGeometry relative="1" as="geometry" />
        </mxCell>
        <mxCell id="um8ARfCaRjgJPJan6YDZ-13" value="Yes" style="edgeLabel;html=1;align=center;verticalAlign=middle;resizable=0;points=[];fontSize=16;" parent="um8ARfCaRjgJPJan6YDZ-12" vertex="1" connectable="0">
          <mxGeometry x="0.1675" y="2" relative="1" as="geometry">
            <mxPoint as="offset" />
          </mxGeometry>
        </mxCell>
        <mxCell id="um8ARfCaRjgJPJan6YDZ-15" style="edgeStyle=none;curved=1;rounded=0;orthogonalLoop=1;jettySize=auto;html=1;entryX=0;entryY=1;entryDx=0;entryDy=0;fontSize=12;startSize=8;endSize=8;" parent="1" source="um8ARfCaRjgJPJan6YDZ-8" target="um8ARfCaRjgJPJan6YDZ-5" edge="1">
          <mxGeometry relative="1" as="geometry">
            <Array as="points">
              <mxPoint x="209" y="357" />
            </Array>
          </mxGeometry>
        </mxCell>
        <mxCell id="um8ARfCaRjgJPJan6YDZ-16" value="No" style="edgeLabel;html=1;align=center;verticalAlign=middle;resizable=0;points=[];fontSize=16;" parent="um8ARfCaRjgJPJan6YDZ-15" vertex="1" connectable="0">
          <mxGeometry x="0.3729" y="-39" relative="1" as="geometry">
            <mxPoint as="offset" />
          </mxGeometry>
        </mxCell>
        <mxCell id="um8ARfCaRjgJPJan6YDZ-8" value="if arrayInput[index].Length &amp;lt;= 3" style="rhombus;whiteSpace=wrap;html=1;fontSize=16;" parent="1" vertex="1">
          <mxGeometry x="344.24" y="400" width="281.5" height="217" as="geometry" />
        </mxCell>
        <mxCell id="um8ARfCaRjgJPJan6YDZ-14" style="edgeStyle=none;curved=1;rounded=0;orthogonalLoop=1;jettySize=auto;html=1;entryX=0;entryY=0.5;entryDx=0;entryDy=0;fontSize=12;startSize=8;endSize=8;" parent="1" source="um8ARfCaRjgJPJan6YDZ-10" target="um8ARfCaRjgJPJan6YDZ-5" edge="1">
          <mxGeometry relative="1" as="geometry">
            <Array as="points">
              <mxPoint x="133" y="227" />
            </Array>
          </mxGeometry>
        </mxCell>
        <mxCell id="um8ARfCaRjgJPJan6YDZ-10" value="arrayOutputSize++&lt;br&gt;arrayOutput[arrayOutputSize] = arrayInput[index]" style="rounded=0;whiteSpace=wrap;html=1;fontSize=16;" parent="1" vertex="1">
          <mxGeometry x="-100" y="476.5" width="364" height="60" as="geometry" />
        </mxCell>
        <mxCell id="um8ARfCaRjgJPJan6YDZ-20" style="edgeStyle=none;curved=1;rounded=0;orthogonalLoop=1;jettySize=auto;html=1;entryX=0.5;entryY=0;entryDx=0;entryDy=0;fontSize=12;startSize=8;endSize=8;" parent="1" source="um8ARfCaRjgJPJan6YDZ-17" target="um8ARfCaRjgJPJan6YDZ-19" edge="1">
          <mxGeometry relative="1" as="geometry" />
        </mxCell>
        <mxCell id="um8ARfCaRjgJPJan6YDZ-17" value="arrayOutput" style="shape=parallelogram;perimeter=parallelogramPerimeter;whiteSpace=wrap;html=1;fixedSize=1;fontSize=16;" parent="1" vertex="1">
          <mxGeometry x="672" y="182.88" width="127" height="61.25" as="geometry" />
        </mxCell>
        <mxCell id="um8ARfCaRjgJPJan6YDZ-19" value="end" style="rounded=1;whiteSpace=wrap;html=1;fontSize=16;" parent="1" vertex="1">
          <mxGeometry x="676" y="293" width="120" height="60" as="geometry" />
        </mxCell>
      </root>
    </mxGraphModel>
  </diagram>
</mxfile>
